<?xml version="1.0" encoding="utf-8"?>
<!-- Generator: Adobe Illustrator 21.1.0, SVG Export Plug-In . SVG Version: 6.00 Build 0)  -->
<svg version="1.1" id="Layer_1" xmlns="http://www.w3.org/2000/svg" xmlns:xlink="http://www.w3.org/1999/xlink" x="0px" y="0px"
	 viewBox="0 0 180.5 90.9" style="enable-background:new 0 0 180.5 90.9;" xml:space="preserve">
<style type="text/css">
	.st0{clip-path:url(#SVGID_2_);fill:#808084;}/*gray*/
	.st1{clip-path:url(#SVGID_4_);fill:#808084;}/*gray*/
	.st2{clip-path:url(#SVGID_6_);fill:#808084;}/*gray*/
	.st3{clip-path:url(#SVGID_8_);fill:#61A24F;}/*green*/
	.st4{clip-path:url(#SVGID_10_);fill:#61A24F;}/*green*/
	.st5{clip-path:url(#SVGID_12_);fill:#61A24F;}/*green*/
	.st6{clip-path:url(#SVGID_14_);fill:#FFD204;}/*yellow*/
	.st7{clip-path:url(#SVGID_16_);fill:#FFD204;}/*yellow*/
	.st8{clip-path:url(#SVGID_18_);fill:#FFD204;}/*yellow*/
</style>
<g>
	<g>
		<defs>
			<rect id="SVGID_1_" width="423.5" height="132.9"/>
		</defs>
		<clipPath id="SVGID_2_">
			<use xlink:href="#SVGID_1_"  style="overflow:visible;"/>
		</clipPath>
		<path class="st0" d="M66.1,1.7c0-0.1,0-0.2-0.1-0.2L20.8,40.1l16.4,23.1c1.5-1.3,2.7-2.9,3.5-4.7"/>
	</g>
	<g>
		<defs>
			<rect id="SVGID_3_" width="423.5" height="132.9"/>
		</defs>
		<clipPath id="SVGID_4_">
			<use xlink:href="#SVGID_3_"  style="overflow:visible;"/>
		</clipPath>
		<path class="st1" d="M137,42.5L68.2,0.1C68.1,0,68,0,67.9,0l29.7,38.8l39.2,4.2C137.1,43,137.3,42.6,137,42.5"/>
	</g>
	<g>
		<defs>
			<rect id="SVGID_5_" width="423.5" height="132.9"/>
		</defs>
		<clipPath id="SVGID_6_">
			<use xlink:href="#SVGID_5_"  style="overflow:visible;"/>
		</clipPath>
		<path class="st2" d="M19.3,20.4c1.9,0,3.7-0.3,5.3-1.2L62.9,0.6C63,0.5,63,0.4,63,0.4c0-0.1-0.1-0.1-0.2-0.1L1.3,19.4
			c-0.2,0.1-0.2,0.4,0,0.4"/>
	</g>
	<g>
		<defs>
			<rect id="SVGID_7_" width="423.5" height="132.9"/>
		</defs>
		<clipPath id="SVGID_8_">
			<use xlink:href="#SVGID_7_"  style="overflow:visible;"/>
		</clipPath>
		<path class="st3 green" d="M1.9,72.9c-0.4,0.6,0.2,1.3,0.9,1.2l28.1-7c2-0.5,3.9-1.5,5.5-2.8L20,41.1"/>
	</g>
	<g>
		<defs>
			<rect id="SVGID_9_" width="423.5" height="132.9"/>
		</defs>
		<clipPath id="SVGID_10_">
			<use xlink:href="#SVGID_9_"  style="overflow:visible;"/>
		</clipPath>
		<path class="st4 green" d="M66.8,1.2L61,63.4c-0.2,1.8,0.3,3.6,1.2,5l34.4-28.5L67.1,1C66.9,1,66.8,1.1,66.8,1.2"/>
	</g>
	<g>
		<defs>
			<rect id="SVGID_11_" width="423.5" height="132.9"/>
		</defs>
		<clipPath id="SVGID_12_">
			<use xlink:href="#SVGID_11_"  style="overflow:visible;"/>
		</clipPath>
		<path class="st5 green" d="M70.8,0.1c-0.1,0-0.2,0-0.2,0.1c0,0.1,0,0.2,0.1,0.2l26.1,13.3c1.6,0.8,3.4,1.4,5.1,1.7l29,5.1
			c0.2,0,0.3-0.1,0.3-0.2c0-0.1,0-0.3-0.2-0.3L100.3,8.6"/>
	</g>
	<g>
		<defs>
			<rect id="SVGID_13_" width="423.5" height="132.9"/>
		</defs>
		<clipPath id="SVGID_14_">
			<use xlink:href="#SVGID_13_"  style="overflow:visible;"/>
		</clipPath>
		<path class="st6 yellow" d="M65.7,0L0.2,39.4C-0.1,39.6,0,40,0.3,40l20.4-1.4L65.8,0C65.8,0,65.7,0,65.7,0"/>
	</g>
	<g>
		<defs>
			<rect id="SVGID_15_" width="423.5" height="132.9"/>
		</defs>
		<clipPath id="SVGID_16_">
			<use xlink:href="#SVGID_15_"  style="overflow:visible;"/>
		</clipPath>
		<path class="st7 yellow" d="M67.9,72.8l45.6,13.4c0.7,0.2,1.4-0.5,1.1-1.2l-17-44.2L63.4,69.4C64.4,71,66,72.2,67.9,72.8"/>
	</g>
	<g>
		<defs>
			<rect id="SVGID_17_" width="423.5" height="132.9"/>
		</defs>
		<clipPath id="SVGID_18_">
			<use xlink:href="#SVGID_17_"  style="overflow:visible;"/>
		</clipPath>
		<path class="st8 yellow" d="M109,19.5c0,0.2,0,0.3,0.2,0.4L153,42.1c0.1,0.1,0.3,0,0.3-0.1c0.1-0.2,0-0.4-0.1-0.5l-11-11.9
			c-1.2-1.3-2.8-2.3-4.5-2.7l-28.4-7.6C109.2,19.2,109,19.3,109,19.5"/>
	</g>
</g>
</svg>
